HIERARCHY
ROOT reference
{
	OFFSET 0.000000 0.000000 0.000000
	CHANNELS 6 Xposition Yposition Zposition Xrotation Yrotation Zrotation
	JOINT root
	{
		OFFSET 0.000000 89.875603 0.000000
		CHANNELS 3 Xrotation Yrotation Zrotation
		JOINT Hips
		{
			OFFSET 0.000000 0.000000 0.000000
			CHANNELS 3 Xrotation Yrotation Zrotation
			JOINT Spine
			{
				OFFSET 0.026467 -0.105476 0.013596
				CHANNELS 3 Xrotation Yrotation Zrotation
				JOINT Spine1
				{
					OFFSET -4.853540 17.193398 -5.027490
					CHANNELS 3 Xrotation Yrotation Zrotation
					JOINT Spine2
					{
						OFFSET -3.457120 17.043404 -6.489560
						CHANNELS 3 Xrotation Yrotation Zrotation
						JOINT Neck
						{
							OFFSET -5.140712 15.586197 -8.669377
							CHANNELS 3 Xrotation Yrotation Zrotation
							JOINT Head
							{
								OFFSET -4.152531 8.554855 -6.523951
								CHANNELS 3 Xrotation Yrotation Zrotation
								End Site
								{
									OFFSET 0.000000 0.100006 0.000000
								}
							}
						}
						JOINT RightShoulder
						{
							OFFSET -3.299612 14.542206 -11.633700
							CHANNELS 3 Xrotation Yrotation Zrotation
							JOINT RightArm
							{
								OFFSET 5.333388 -8.032135 -12.870399
								CHANNELS 3 Xrotation Yrotation Zrotation
								JOINT RightForeArm
								{
									OFFSET 0.595366 -13.786201 -25.966301
									CHANNELS 3 Xrotation Yrotation Zrotation
									JOINT RightHand
									{
										OFFSET -13.517000 -1.519997 -20.889801
										CHANNELS 3 Xrotation Yrotation Zrotation
										End Site
										{
											OFFSET 0.000000 0.099998 0.000000
										}
									}
								}
							}
						}
						JOINT LeftShoulder
						{
							OFFSET -6.992720 16.618195 -5.713750
							CHANNELS 3 Xrotation Yrotation Zrotation
							JOINT LeftArm
							{
								OFFSET -6.718698 3.247314 14.245000
								CHANNELS 3 Xrotation Yrotation Zrotation
								JOINT LeftForeArm
								{
									OFFSET 8.817444 -14.592697 23.957703
									CHANNELS 3 Xrotation Yrotation Zrotation
									JOINT LeftHand
									{
										OFFSET -10.526400 -21.311096 7.512070
										CHANNELS 3 Xrotation Yrotation Zrotation
										End Site
										{
											OFFSET 0.000000 0.099998 0.000000
										}
									}
								}
							}
						}
					}
				}
			}
			JOINT RightUpLeg
			{
				OFFSET 4.593220 -0.383102 -8.373450
				CHANNELS 3 Xrotation Yrotation Zrotation
				JOINT RightLeg
				{
					OFFSET -10.208103 -39.044800 -19.962498
					CHANNELS 3 Xrotation Yrotation Zrotation
					JOINT RightFoot
					{
						OFFSET 4.843588 -40.875301 -1.150330
						CHANNELS 3 Xrotation Yrotation Zrotation
						JOINT RightToe
						{
							OFFSET -9.736700 -6.853460 -13.504299
							CHANNELS 3 Xrotation Yrotation Zrotation
							End Site
							{
								OFFSET 0.000000 0.100000 0.000000
							}
						}
					}
				}
			}
			JOINT LeftUpLeg
			{
				OFFSET -4.593220 0.383102 8.373440
				CHANNELS 3 Xrotation Yrotation Zrotation
				JOINT LeftLeg
				{
					OFFSET -5.425028 -42.686501 13.252899
					CHANNELS 3 Xrotation Yrotation Zrotation
					JOINT LeftFoot
					{
						OFFSET 11.094902 -37.689201 12.328602
						CHANNELS 3 Xrotation Yrotation Zrotation
						JOINT LeftToe
						{
							OFFSET -16.356800 -7.519030 -0.239304
							CHANNELS 3 Xrotation Yrotation Zrotation
							End Site
							{
								OFFSET 0.000000 0.100000 0.000000
							}
						}
					}
				}
			}
		}
	}
}
MOTION
Frames: 12
Frame Time: 0.041667
0.000000 0.000000 0.000000 -0.000000 0.000000 -0.000000 -4.102639 -7.018160 1.081809 -3.008764 -1.059371 -1.619911 2.478592 -1.607632 0.953970 0.185165 -3.155141 -0.040483 0.160760 -2.134880 0.202545 -0.246340 2.165234 0.577456 -1.323302 3.727039 1.318292 3.246532 0.185460 1.069832 -13.943925 -28.222319 -6.500567 -1.683965 -2.521007 1.252539 -4.382630 -24.491583 -22.668783 3.641916 2.832117 0.823661 -12.754035 19.517780 -39.263530 16.392562 -16.439403 -13.253478 12.602177 15.262754 -10.032784 9.870985 0.800393 -7.125273 -12.973774 -3.018987 10.086859 14.123753 4.784761 -3.368896 -2.491291 0.142610 -2.642392 -1.274871 1.714874 3.474825 -0.404771 2.162617 6.932523 7.143623 2.296111 -0.684397 6.404336 -0.598159 -7.751563 
0.000000 0.000000 0.000000 -0.000000 0.000000 -0.000000 -3.722853 -7.216976 0.308771 -1.730934 -0.621159 -0.927113 2.097411 -1.753179 1.139934 -0.202287 -2.947724 0.257300 -0.109567 -1.976673 0.388136 -0.323102 1.829526 0.085000 -1.037967 3.263439 0.335357 2.672526 0.306251 0.797014 -12.485310 -22.532260 -6.173245 -0.785793 -1.161827 0.588595 -0.240680 -20.780277 -17.213779 2.771737 1.378014 0.990822 -9.678202 11.974713 -34.439709 16.627467 -16.725474 -13.429205 11.057661 10.271045 -5.116132 9.108441 0.738773 -7.500056 -13.309011 -3.129171 10.343318 13.742226 4.469223 -2.597451 -2.689697 0.183351 -3.027833 -2.265323 -0.492559 0.602603 -0.898411 3.798854 12.335219 5.282432 2.189869 -2.682045 7.998540 -0.692922 -7.786472 
0.000000 0.000000 0.000000 -0.000000 0.000000 -0.000000 -3.305068 -6.506734 0.366032 -1.625755 -0.584334 -0.870394 2.099341 -1.770854 1.100376 -0.048232 -2.930725 0.289576 -0.005394 -1.961334 0.409409 -0.443005 1.674465 0.089311 -1.209745 2.965731 0.225827 2.652467 0.256163 0.814565 -11.447083 -19.765201 -5.454838 -0.095398 -0.139705 0.071818 2.215852 -17.550475 -13.872124 2.310018 0.867663 0.946806 -8.725684 9.520821 -31.848513 17.024684 -17.212384 -13.725207 9.870795 7.556027 -2.737432 8.312439 0.864926 -6.741335 -11.888796 -2.673650 9.255018 12.772061 3.786680 -1.403489 -2.717449 0.252174 -3.586537 -2.567461 -0.355983 0.205308 -0.814059 3.555191 11.519055 6.316741 2.300592 -1.411674 6.581395 -0.670339 -8.700222 
0.000000 0.000000 0.000000 -0.000000 0.000000 -0.000000 -2.107974 -4.775802 0.453180 -1.635028 -0.587585 -0.875399 1.951361 -1.577338 1.018020 0.119264 -2.616295 0.352957 0.103956 -1.742364 0.430489 -0.549597 1.385967 0.119381 -1.351794 2.417636 0.137867 2.799437 0.592958 0.699986 -7.655620 -16.131889 -4.498934 0.778647 1.126125 -0.589976 7.021674 -10.103313 -6.641856 1.449473 0.408863 0.647752 -8.384237 6.031968 -27.228641 17.606882 -17.933046 -14.156226 8.389142 6.064095 -1.619248 6.135461 1.728519 -4.016965 -6.854329 -1.294942 5.363097 8.380176 2.121509 3.183217 -2.085430 0.633908 -6.491165 -2.623664 0.927680 1.326906 -0.347461 1.927393 6.169055 7.296715 2.727086 1.189050 3.579904 -0.438890 -7.939878 
0.000000 0.000000 0.000000 -0.000000 0.000000 -0.000000 -1.618584 -4.020797 0.509429 -1.501002 -0.540493 -0.803189 1.756872 -1.360983 0.964657 0.051694 -2.267925 0.348033 0.054217 -1.507661 0.401731 -0.550334 1.182199 0.058041 -1.268781 2.069128 -0.014421 2.879479 0.838452 0.605046 -5.041786 -14.716184 -3.929817 1.012369 1.459289 -0.768325 8.262897 -5.982464 -4.132845 1.002632 0.284035 0.446409 -8.521065 4.783516 -25.453624 17.510496 -17.813123 -14.085088 7.971514 6.047665 -1.648787 4.973264 2.464922 -2.585758 -3.509323 -0.579988 2.753363 4.154476 0.765620 7.077061 -0.332064 0.944065 -8.876290 -2.399664 1.779699 2.315436 -0.111271 0.758935 2.413459 6.863532 3.010948 2.522085 2.569649 -0.313371 -6.425019 
0.000000 0.000000 0.000000 -0.000000 0.000000 -0.000000 -0.945299 -3.309498 0.699492 -0.666290 -0.242879 -0.355282 1.229618 -0.901059 0.798965 -0.272743 -1.437449 0.230788 -0.173759 -0.957666 0.260143 -0.696629 0.699839 0.038501 -1.393835 1.178473 -0.252038 2.622385 0.971637 0.446695 -0.122509 -10.375652 -3.305862 0.785584 1.136055 -0.595269 9.489520 -0.109184 -0.463193 0.205988 -0.036904 0.127353 -8.854018 3.661096 -22.157955 16.351440 -16.389478 -13.222609 7.020843 6.773648 -2.560036 3.181453 3.469152 -1.169103 2.692873 0.328058 -2.120840 -9.670446 -5.688531 14.771220 9.358563 1.206112 -12.966940 -2.030338 4.584170 5.077964 0.140915 -2.341478 -7.380860 4.055372 3.063371 5.435760 2.031492 -0.121005 -3.036506 
0.000000 0.000000 0.000000 -0.000000 0.000000 -0.000000 -0.698683 -3.577273 0.742286 -0.235692 -0.086575 -0.125443 1.021760 -0.615284 0.696515 -0.346199 -0.947986 0.141038 -0.227682 -0.634050 0.162797 -0.816113 0.544058 0.159363 -1.640641 0.826814 -0.147702 2.771882 0.730864 0.620777 0.654028 -7.451253 -3.123849 0.629213 0.911943 -0.476249 9.422903 0.926438 0.604533 0.059757 -0.279065 0.137400 -9.495465 3.733343 -20.313782 15.197200 -15.005178 -12.350788 6.538629 7.047408 -2.902339 2.601694 3.752845 -1.326955 4.405627 0.484202 -3.472444 -14.908770 -8.911304 15.892537 13.149516 1.166525 -12.757492 -1.963187 6.503541 7.332484 0.026619 -4.299156 -13.558737 2.914802 2.988502 6.894272 1.574295 -0.008028 -0.609094 
0.000000 0.000000 0.000000 -0.000000 0.000000 -0.000000 -0.571459 -3.220275 1.094522 0.028399 0.010447 0.015108 1.036547 -0.155494 0.509540 0.145163 -0.245569 0.050154 0.100486 -0.160771 0.053300 -0.807948 0.087058 0.135236 -1.493975 0.004091 -0.293016 3.743662 -0.818024 1.769300 -2.003276 -2.851704 -4.583099 1.022357 1.473468 -0.775933 8.426287 2.156586 2.686686 -0.153378 -1.015192 0.288971 -10.622939 4.000017 -16.510521 11.676283 -10.994557 -9.620472 4.984639 6.346917 -2.787581 3.733332 4.167234 -3.697764 -2.672589 -0.425935 2.098144 -12.832769 -2.832164 5.171495 7.574237 0.146639 -0.196841 -1.054439 5.808458 6.096906 0.035404 -4.219739 -13.306748 1.754133 2.354287 6.360249 0.848989 0.015215 0.048805 
0.000000 0.000000 0.000000 -0.000000 0.000000 -0.000000 -0.562471 -2.348509 1.242543 0.054744 0.020152 0.029106 1.029945 -0.032649 0.370175 0.374676 -0.072551 -0.036957 0.255805 -0.047848 -0.016255 -0.654270 -0.104737 0.240689 -1.240266 -0.362871 -0.070688 3.048116 -0.924287 1.546689 -2.405236 -2.384850 -3.864990 1.454573 2.083442 -1.107275 6.667329 2.011797 1.907378 -0.167047 -1.087292 0.307373 -10.019557 3.113808 -14.393782 9.152217 -8.319077 -7.606050 3.837883 5.206966 -2.238494 3.281663 3.857657 -4.025168 -5.462674 -0.978160 4.279340 -12.947804 -1.522470 1.945813 14.712900 1.162940 -1.514776 -0.564364 4.184418 4.098188 0.117649 -3.186002 -10.039380 1.024262 1.815751 4.898936 0.000000 0.000000 -0.000000 
0.000000 0.000000 0.000000 -0.000000 0.000000 -0.000000 -0.273588 -0.227846 0.481521 0.021592 0.007938 0.011486 0.721161 -0.111178 0.273291 0.403071 -0.159763 0.089042 0.274622 -0.097238 0.075699 -0.306862 -0.091245 0.382456 -0.724276 -0.376795 0.389949 1.498106 -0.569932 0.788664 -1.863285 -1.773367 -1.694201 1.456886 2.086720 -1.109068 3.609715 1.219656 0.876296 -0.159385 -0.549070 0.115751 -6.059370 0.954369 -8.896716 4.316864 -3.658280 -3.638660 1.752348 3.462670 -1.600810 -0.027973 -0.324959 -1.475971 -1.456566 -0.219710 1.144431 -1.791168 -0.594409 0.755596 4.724592 0.621745 -1.362246 -0.358466 1.459108 2.252828 0.129897 -1.624777 -5.126660 0.854572 0.694596 2.372428 -0.000001 0.000000 -0.000001 
0.000000 0.000000 0.000000 -0.000000 0.000000 -0.000000 -0.163924 0.326332 0.165704 -0.064782 -0.023813 -0.034448 0.539233 -0.127053 0.193435 0.368210 -0.190775 0.099377 0.251065 -0.117769 0.084727 -0.278111 -0.027161 0.400742 -0.701038 -0.283211 0.459442 1.036509 -0.310490 0.501383 -1.543771 -1.295488 -0.818106 1.071142 1.542675 -0.813244 2.219826 0.774074 0.403606 -0.108060 -0.198180 0.014569 -3.817075 0.272223 -5.765574 2.548135 -2.103256 -2.157539 1.065345 2.389947 -1.102907 -0.082066 -0.554764 -0.509747 -0.942027 -0.138693 0.740411 0.639446 0.070380 -0.423388 0.810970 0.102361 -0.092207 -0.188576 0.556284 1.418638 0.089352 -0.891136 -2.816433 0.855449 0.306235 1.233571 -0.000001 0.000000 0.000003 
0.000000 0.000000 0.000000 -0.000000 0.000000 -0.000000 -0.163924 0.326332 0.165704 -0.064782 -0.023813 -0.034448 0.539233 -0.127053 0.193435 0.368210 -0.190775 0.099377 0.251065 -0.117769 0.084727 -0.278111 -0.027161 0.400742 -0.701038 -0.283211 0.459442 1.036509 -0.310490 0.501383 -1.543771 -1.295488 -0.818106 1.071142 1.542675 -0.813244 2.219826 0.774074 0.403606 -0.108060 -0.198180 0.014569 -3.817075 0.272223 -5.765574 2.548135 -2.103256 -2.157539 1.065345 2.389947 -1.102907 -0.082066 -0.554764 -0.509747 -0.942027 -0.138693 0.740411 0.639446 0.070380 -0.423388 0.810970 0.102361 -0.092207 -0.188576 0.556284 1.418638 0.089352 -0.891136 -2.816433 0.855449 0.306235 1.233571 -0.000001 0.000000 0.000003 
